<svg xmlns="http://www.w3.org/2000/svg" xml:space="preserve" width="655.359" height="655.359" style="shape-rendering:geometricPrecision;text-rendering:geometricPrecision;image-rendering:optimizeQuality;fill-rule:evenodd;clip-rule:evenodd" viewBox="0 0 6.827 6.827"><defs><style>.fil1{fill:none}.fil2{fill:#fffffe;fill-rule:nonzero}</style></defs><g id="Layer_x0020_1"><path style="fill:#9e9e9e" d="M0 0h6.827v6.827H0z"/><g id="_242000568"><path id="_242001864" class="fil1" d="M0 0h6.827v6.827H0z"/><path id="_242001480" class="fil1" d="M.853.853h5.12v5.12H.853z"/></g><path class="fil2" d="M3.413.853c.707 0 1.347.287 1.81.75.464.463.75 1.103.75 1.81 0 .707-.286 1.347-.75 1.81a2.552 2.552 0 0 1-1.81.75 2.552 2.552 0 0 1-1.81-.75 2.552 2.552 0 0 1-.75-1.81c0-.707.287-1.347.75-1.81a2.552 2.552 0 0 1 1.81-.75zm1.66.901a2.34 2.34 0 0 0-1.66-.687 2.34 2.34 0 0 0-1.659.687 2.34 2.34 0 0 0-.687 1.66c0 .647.262 1.234.687 1.659a2.34 2.34 0 0 0 1.66.687 2.34 2.34 0 0 0 1.659-.687 2.34 2.34 0 0 0 .687-1.66 2.34 2.34 0 0 0-.687-1.659z"/><path class="fil2" d="M5.247 1.93c-.252.152-.542.27-.854.35-.311.08-.643.122-.98.122-.358 0-.71-.047-1.037-.137a3.1 3.1 0 0 1-.888-.393l.118-.178c.239.159.52.282.826.366.307.085.64.13.981.13.321 0 .635-.04.927-.115a2.98 2.98 0 0 0 .797-.328l.11.183zM5.137 5.08a2.98 2.98 0 0 0-.797-.328 3.74 3.74 0 0 0-.927-.114c-.34 0-.674.044-.981.129a2.885 2.885 0 0 0-.826.365l-.118-.177a3.1 3.1 0 0 1 .888-.393 3.951 3.951 0 0 1 2.017-.015c.312.08.602.198.854.35l-.11.182zM.96 3.307h4.902v.213H.96z"/><path class="fil2" d="M2.768 1.065a4.728 4.728 0 0 0-.331 1.06 6.445 6.445 0 0 0-.117 1.23c0 .453.046.896.131 1.304.085.407.21.782.37 1.1l-.19.095a4.727 4.727 0 0 1-.388-1.152 6.62 6.62 0 0 1-.136-1.346c0-.438.041-.869.12-1.272.08-.403.196-.78.347-1.107l.194.088zM4.252.977c.151.328.268.704.347 1.107.08.403.12.834.12 1.272 0 .465-.046.922-.135 1.346-.09.426-.22.818-.389 1.152l-.19-.096c.16-.317.285-.692.37-1.099.086-.408.131-.85.131-1.303 0-.425-.04-.842-.116-1.231a4.728 4.728 0 0 0-.331-1.06l.193-.088zM3.52.973v4.88h-.213V.973z"/></g></svg>